<?xml version="1.0" encoding="UTF-8" standalone="no"?>
<!-- Created with Inkscape (http://www.inkscape.org/) -->

<svg
   xmlns:dc="http://purl.org/dc/elements/1.1/"
   xmlns:cc="http://creativecommons.org/ns#"
   xmlns:rdf="http://www.w3.org/1999/02/22-rdf-syntax-ns#"
   xmlns:svg="http://www.w3.org/2000/svg"
   xmlns="http://www.w3.org/2000/svg"
   xmlns:sodipodi="http://sodipodi.sourceforge.net/DTD/sodipodi-0.dtd"
   xmlns:inkscape="http://www.inkscape.org/namespaces/inkscape"
   width="210mm"
   height="297mm"
   viewBox="0 0 210 297"
   version="1.1"
   id="svg8"
   inkscape:version="0.92.4 (5da689c313, 2019-01-14)"
   sodipodi:docname="Tiles.svg">
  <defs
     id="defs2" />
  <sodipodi:namedview
     id="base"
     pagecolor="#ffffff"
     bordercolor="#666666"
     borderopacity="1.0"
     inkscape:pageopacity="0.0"
     inkscape:pageshadow="2"
     inkscape:zoom="1.1540444"
     inkscape:cx="268.00489"
     inkscape:cy="770.84871"
     inkscape:document-units="mm"
     inkscape:current-layer="layer1"
     showgrid="false"
     inkscape:snap-bbox="true"
     inkscape:bbox-paths="false"
     inkscape:bbox-nodes="true"
     inkscape:snap-bbox-edge-midpoints="false"
     inkscape:window-width="1920"
     inkscape:window-height="1027"
     inkscape:window-x="1272"
     inkscape:window-y="-8"
     inkscape:window-maximized="1" />
  <metadata
     id="metadata5">
    <rdf:RDF>
      <cc:Work
         rdf:about="">
        <dc:format>image/svg+xml</dc:format>
        <dc:type
           rdf:resource="http://purl.org/dc/dcmitype/StillImage" />
        <dc:title></dc:title>
      </cc:Work>
    </rdf:RDF>
  </metadata>
  <g
     inkscape:label="Layer 1"
     inkscape:groupmode="layer"
     id="layer1">
    <g
       id="g822"
       transform="translate(30.156125,20.39323)"
       inkscape:export-xdpi="85.21965"
       inkscape:export-ydpi="85.21965">
      <path
         sodipodi:nodetypes="sssssccss"
         inkscape:connector-curvature="0"
         style="fill:#de8787;fill-opacity:1;stroke:none;stroke-width:4.46000004;stroke-linecap:round;stroke-linejoin:round;stroke-miterlimit:4;stroke-dasharray:none;stroke-opacity:1"
         d="m 61.126637,57.32605 h 22.072271 c 2.140733,0 3.864139,1.723406 3.864139,3.86414 v 22.07227 c 0,2.140734 -1.723406,3.86414 -3.864139,3.86414 H 61.126637 c -2.140734,0 -3.86414,-1.723406 -3.86414,-3.86414 V 61.19019 c 0,-2.140734 1.723406,-3.86414 3.86414,-3.86414 z"
         id="path842" />
      <path
         id="rect815"
         d="m 61.126637,57.32605 h 22.072271 c 2.140733,0 3.864139,1.723406 3.864139,3.86414 v 22.07227 c 0,2.140734 -1.723406,3.86414 -3.864139,3.86414 H 61.126637 c -2.140734,0 -3.86414,-1.723406 -3.86414,-3.86414 V 61.19019 c 0,-2.140734 1.723406,-3.86414 3.86414,-3.86414 z"
         style="fill:#ae7640;fill-opacity:1;stroke:none;stroke-width:4.46000004;stroke-linecap:round;stroke-linejoin:round;stroke-miterlimit:4;stroke-dasharray:none;stroke-opacity:1"
         inkscape:connector-curvature="0"
         sodipodi:nodetypes="sssssccss" />
      <rect
         style="fill:#a06d3d;fill-opacity:1;stroke:none;stroke-width:3.3599999;stroke-linecap:round;stroke-linejoin:round;stroke-miterlimit:4;stroke-dasharray:none;stroke-opacity:1"
         id="rect817"
         width="22.450638"
         height="22.450638"
         x="60.937454"
         y="61.001007"
         ry="2.9111009" />
    </g>
    <g
       id="g850"
       transform="translate(0.355575,20.39323)"
       inkscape:export-xdpi="85.21965"
       inkscape:export-ydpi="85.21965">
      <path
         id="path844"
         d="m 61.126637,57.32605 h 22.072271 c 2.140733,0 3.864139,1.723406 3.864139,3.86414 v 22.07227 c 0,2.140734 -1.723406,3.86414 -3.864139,3.86414 H 61.126637 c -2.140734,0 -3.86414,-1.723406 -3.86414,-3.86414 V 61.19019 c 0,-2.140734 1.723406,-3.86414 3.86414,-3.86414 z"
         style="fill:#de8787;fill-opacity:1;stroke:none;stroke-width:4.46000004;stroke-linecap:round;stroke-linejoin:round;stroke-miterlimit:4;stroke-dasharray:none;stroke-opacity:1"
         inkscape:connector-curvature="0"
         sodipodi:nodetypes="sssssccss" />
      <path
         sodipodi:nodetypes="csssscc"
         inkscape:connector-curvature="0"
         style="fill:#ae7640;fill-opacity:1;stroke:none;stroke-width:4.46000004;stroke-linecap:round;stroke-linejoin:round;stroke-miterlimit:4;stroke-dasharray:none;stroke-opacity:1"
         d="m 57.256126,57.32605 h 25.942782 c 2.140733,0 3.864139,1.723406 3.864139,3.86414 v 22.07227 c 0,2.140734 -1.723406,3.86414 -3.864139,3.86414 H 57.256126 Z"
         id="path846" />
      <rect
         ry="2.9111009"
         y="61.001007"
         x="60.937454"
         height="22.450638"
         width="22.450638"
         id="rect848"
         style="fill:#a06d3d;fill-opacity:1;stroke:none;stroke-width:3.3599999;stroke-linecap:round;stroke-linejoin:round;stroke-miterlimit:4;stroke-dasharray:none;stroke-opacity:1" />
    </g>
    <g
       id="g868"
       transform="translate(89.763596,-39.220611)"
       inkscape:export-xdpi="85.21965"
       inkscape:export-ydpi="85.21965">
      <path
         sodipodi:nodetypes="sssssccss"
         inkscape:connector-curvature="0"
         style="fill:#de8787;fill-opacity:1;stroke:none;stroke-width:4.46000004;stroke-linecap:round;stroke-linejoin:round;stroke-miterlimit:4;stroke-dasharray:none;stroke-opacity:1"
         d="m 61.126637,57.32605 h 22.072271 c 2.140733,0 3.864139,1.723406 3.864139,3.86414 v 22.07227 c 0,2.140734 -1.723406,3.86414 -3.864139,3.86414 H 61.126637 c -2.140734,0 -3.86414,-1.723406 -3.86414,-3.86414 V 61.19019 c 0,-2.140734 1.723406,-3.86414 3.86414,-3.86414 z"
         id="path862" />
      <path
         id="path864"
         d="m 57.256126,57.32605 h 25.942782 c 2.140733,0 3.864139,1.723406 3.864139,3.86414 v 25.926807 l -29.806921,0.0096 z"
         style="fill:#ae7640;fill-opacity:1;stroke:none;stroke-width:4.46000004;stroke-linecap:round;stroke-linejoin:round;stroke-miterlimit:4;stroke-dasharray:none;stroke-opacity:1"
         inkscape:connector-curvature="0"
         sodipodi:nodetypes="cssccc" />
      <rect
         style="fill:#a06d3d;fill-opacity:1;stroke:none;stroke-width:3.3599999;stroke-linecap:round;stroke-linejoin:round;stroke-miterlimit:4;stroke-dasharray:none;stroke-opacity:1"
         id="rect866"
         width="22.450638"
         height="22.450638"
         x="60.937454"
         y="61.001007"
         ry="2.9111009" />
    </g>
    <g
       id="g876"
       transform="translate(0.34920306,-39.214241)"
       inkscape:export-xdpi="85.21965"
       inkscape:export-ydpi="85.21965">
      <path
         id="path870"
         d="m 61.126637,57.32605 h 22.072271 c 2.140733,0 3.864139,1.723406 3.864139,3.86414 v 22.07227 c 0,2.140734 -1.723406,3.86414 -3.864139,3.86414 H 61.126637 c -2.140734,0 -3.86414,-1.723406 -3.86414,-3.86414 V 61.19019 c 0,-2.140734 1.723406,-3.86414 3.86414,-3.86414 z"
         style="fill:#de8787;fill-opacity:1;stroke:none;stroke-width:4.46000004;stroke-linecap:round;stroke-linejoin:round;stroke-miterlimit:4;stroke-dasharray:none;stroke-opacity:1"
         inkscape:connector-curvature="0"
         sodipodi:nodetypes="sssssccss" />
      <path
         sodipodi:nodetypes="ccccc"
         inkscape:connector-curvature="0"
         style="fill:#ae7640;fill-opacity:1;stroke:none;stroke-width:4.46000004;stroke-linecap:round;stroke-linejoin:round;stroke-miterlimit:4;stroke-dasharray:none;stroke-opacity:1"
         d="m 57.256126,57.32605 h 29.823426 c 0,0 -0.01651,21.894506 -0.01651,29.790947 l -29.806921,0.0096 z"
         id="path872" />
      <rect
         ry="2.9111009"
         y="61.001007"
         x="60.937454"
         height="22.450638"
         width="22.450638"
         id="rect874"
         style="fill:#a06d3d;fill-opacity:1;stroke:none;stroke-width:3.3599999;stroke-linecap:round;stroke-linejoin:round;stroke-miterlimit:4;stroke-dasharray:none;stroke-opacity:1" />
    </g>
    <g
       transform="rotate(90,77.041034,67.697267)"
       id="g884"
       inkscape:export-xdpi="85.21965"
       inkscape:export-ydpi="85.21965">
      <path
         id="path878"
         d="m 61.126637,57.32605 h 22.072271 c 2.140733,0 3.864139,1.723406 3.864139,3.86414 v 22.07227 c 0,2.140734 -1.723406,3.86414 -3.864139,3.86414 H 61.126637 c -2.140734,0 -3.86414,-1.723406 -3.86414,-3.86414 V 61.19019 c 0,-2.140734 1.723406,-3.86414 3.86414,-3.86414 z"
         style="fill:#de8787;fill-opacity:1;stroke:none;stroke-width:4.46000004;stroke-linecap:round;stroke-linejoin:round;stroke-miterlimit:4;stroke-dasharray:none;stroke-opacity:1"
         inkscape:connector-curvature="0"
         sodipodi:nodetypes="sssssccss" />
      <path
         sodipodi:nodetypes="cssccc"
         inkscape:connector-curvature="0"
         style="fill:#ae7640;fill-opacity:1;stroke:none;stroke-width:4.46000004;stroke-linecap:round;stroke-linejoin:round;stroke-miterlimit:4;stroke-dasharray:none;stroke-opacity:1"
         d="m 57.256126,57.32605 h 25.942782 c 2.140733,0 3.864139,1.723406 3.864139,3.86414 v 25.926807 l -29.806921,0.0096 z"
         id="path880" />
      <rect
         ry="2.9111009"
         y="61.001007"
         x="60.937454"
         height="22.450638"
         width="22.450638"
         id="rect882"
         style="fill:#a06d3d;fill-opacity:1;stroke:none;stroke-width:3.3599999;stroke-linecap:round;stroke-linejoin:round;stroke-miterlimit:4;stroke-dasharray:none;stroke-opacity:1" />
    </g>
    <g
       transform="rotate(180,87.237649,52.619205)"
       id="g892"
       inkscape:export-xdpi="85.21965"
       inkscape:export-ydpi="85.21965">
      <path
         id="path886"
         d="m 61.126637,57.32605 h 22.072271 c 2.140733,0 3.864139,1.723406 3.864139,3.86414 v 22.07227 c 0,2.140734 -1.723406,3.86414 -3.864139,3.86414 H 61.126637 c -2.140734,0 -3.86414,-1.723406 -3.86414,-3.86414 V 61.19019 c 0,-2.140734 1.723406,-3.86414 3.86414,-3.86414 z"
         style="fill:#de8787;fill-opacity:1;stroke:none;stroke-width:4.46000004;stroke-linecap:round;stroke-linejoin:round;stroke-miterlimit:4;stroke-dasharray:none;stroke-opacity:1"
         inkscape:connector-curvature="0"
         sodipodi:nodetypes="sssssccss" />
      <path
         sodipodi:nodetypes="cssccc"
         inkscape:connector-curvature="0"
         style="fill:#ae7640;fill-opacity:1;stroke:none;stroke-width:4.46000004;stroke-linecap:round;stroke-linejoin:round;stroke-miterlimit:4;stroke-dasharray:none;stroke-opacity:1"
         d="m 57.256126,57.32605 h 25.942782 c 2.140733,0 3.864139,1.723406 3.864139,3.86414 v 25.926807 l -29.806921,0.0096 z"
         id="path888" />
      <rect
         ry="2.9111009"
         y="61.001007"
         x="60.937454"
         height="22.450638"
         width="22.450638"
         id="rect890"
         style="fill:#a06d3d;fill-opacity:1;stroke:none;stroke-width:3.3599999;stroke-linecap:round;stroke-linejoin:round;stroke-miterlimit:4;stroke-dasharray:none;stroke-opacity:1" />
    </g>
    <g
       id="g900"
       transform="rotate(-90,82.530804,22.637682)"
       inkscape:export-xdpi="85.21965"
       inkscape:export-ydpi="85.21965">
      <path
         sodipodi:nodetypes="sssssccss"
         inkscape:connector-curvature="0"
         style="fill:#de8787;fill-opacity:1;stroke:none;stroke-width:4.46000004;stroke-linecap:round;stroke-linejoin:round;stroke-miterlimit:4;stroke-dasharray:none;stroke-opacity:1"
         d="m 61.126637,57.32605 h 22.072271 c 2.140733,0 3.864139,1.723406 3.864139,3.86414 v 22.07227 c 0,2.140734 -1.723406,3.86414 -3.864139,3.86414 H 61.126637 c -2.140734,0 -3.86414,-1.723406 -3.86414,-3.86414 V 61.19019 c 0,-2.140734 1.723406,-3.86414 3.86414,-3.86414 z"
         id="path894" />
      <path
         id="path896"
         d="m 57.256126,57.32605 h 25.942782 c 2.140733,0 3.864139,1.723406 3.864139,3.86414 v 25.926807 l -29.806921,0.0096 z"
         style="fill:#ae7640;fill-opacity:1;stroke:none;stroke-width:4.46000004;stroke-linecap:round;stroke-linejoin:round;stroke-miterlimit:4;stroke-dasharray:none;stroke-opacity:1"
         inkscape:connector-curvature="0"
         sodipodi:nodetypes="cssccc" />
      <rect
         style="fill:#a06d3d;fill-opacity:1;stroke:none;stroke-width:3.3599999;stroke-linecap:round;stroke-linejoin:round;stroke-miterlimit:4;stroke-dasharray:none;stroke-opacity:1"
         id="rect898"
         width="22.450638"
         height="22.450638"
         x="60.937454"
         y="61.001007"
         ry="2.9111009" />
    </g>
    <g
       transform="rotate(-90,112.33454,22.634496)"
       id="g908"
       inkscape:export-xdpi="85.21965"
       inkscape:export-ydpi="85.21965">
      <path
         sodipodi:nodetypes="sssssccss"
         inkscape:connector-curvature="0"
         style="fill:#de8787;fill-opacity:1;stroke:none;stroke-width:4.46000004;stroke-linecap:round;stroke-linejoin:round;stroke-miterlimit:4;stroke-dasharray:none;stroke-opacity:1"
         d="m 61.126637,57.32605 h 22.072271 c 2.140733,0 3.864139,1.723406 3.864139,3.86414 v 22.07227 c 0,2.140734 -1.723406,3.86414 -3.864139,3.86414 H 61.126637 c -2.140734,0 -3.86414,-1.723406 -3.86414,-3.86414 V 61.19019 c 0,-2.140734 1.723406,-3.86414 3.86414,-3.86414 z"
         id="path902" />
      <path
         id="path904"
         d="m 57.256126,57.32605 h 25.942782 c 2.140733,0 3.864139,1.723406 3.864139,3.86414 v 22.07227 c 0,2.140734 -1.723406,3.86414 -3.864139,3.86414 H 57.256126 Z"
         style="fill:#ae7640;fill-opacity:1;stroke:none;stroke-width:4.46000004;stroke-linecap:round;stroke-linejoin:round;stroke-miterlimit:4;stroke-dasharray:none;stroke-opacity:1"
         inkscape:connector-curvature="0"
         sodipodi:nodetypes="csssscc" />
      <rect
         style="fill:#a06d3d;fill-opacity:1;stroke:none;stroke-width:3.3599999;stroke-linecap:round;stroke-linejoin:round;stroke-miterlimit:4;stroke-dasharray:none;stroke-opacity:1"
         id="rect906"
         width="22.450638"
         height="22.450638"
         x="60.937454"
         y="61.001007"
         ry="2.9111009" />
    </g>
    <g
       id="g916"
       transform="rotate(-180,102.14618,67.522664)"
       inkscape:export-xdpi="85.21965"
       inkscape:export-ydpi="85.21965">
      <path
         id="path910"
         d="m 61.126637,57.32605 h 22.072271 c 2.140733,0 3.864139,1.723406 3.864139,3.86414 v 22.07227 c 0,2.140734 -1.723406,3.86414 -3.864139,3.86414 H 61.126637 c -2.140734,0 -3.86414,-1.723406 -3.86414,-3.86414 V 61.19019 c 0,-2.140734 1.723406,-3.86414 3.86414,-3.86414 z"
         style="fill:#de8787;fill-opacity:1;stroke:none;stroke-width:4.46000004;stroke-linecap:round;stroke-linejoin:round;stroke-miterlimit:4;stroke-dasharray:none;stroke-opacity:1"
         inkscape:connector-curvature="0"
         sodipodi:nodetypes="sssssccss" />
      <path
         sodipodi:nodetypes="csssscc"
         inkscape:connector-curvature="0"
         style="fill:#ae7640;fill-opacity:1;stroke:none;stroke-width:4.46000004;stroke-linecap:round;stroke-linejoin:round;stroke-miterlimit:4;stroke-dasharray:none;stroke-opacity:1"
         d="m 57.256126,57.32605 h 25.942782 c 2.140733,0 3.864139,1.723406 3.864139,3.86414 v 22.07227 c 0,2.140734 -1.723406,3.86414 -3.864139,3.86414 H 57.256126 Z"
         id="path912" />
      <rect
         ry="2.9111009"
         y="61.001007"
         x="60.937454"
         height="22.450638"
         width="22.450638"
         id="rect914"
         style="fill:#a06d3d;fill-opacity:1;stroke:none;stroke-width:3.3599999;stroke-linecap:round;stroke-linejoin:round;stroke-miterlimit:4;stroke-dasharray:none;stroke-opacity:1" />
    </g>
    <g
       transform="rotate(90,91.949563,82.605793)"
       id="g924"
       inkscape:export-xdpi="85.21965"
       inkscape:export-ydpi="85.21965">
      <path
         sodipodi:nodetypes="sssssccss"
         inkscape:connector-curvature="0"
         style="fill:#de8787;fill-opacity:1;stroke:none;stroke-width:4.46000004;stroke-linecap:round;stroke-linejoin:round;stroke-miterlimit:4;stroke-dasharray:none;stroke-opacity:1"
         d="m 61.126637,57.32605 h 22.072271 c 2.140733,0 3.864139,1.723406 3.864139,3.86414 v 22.07227 c 0,2.140734 -1.723406,3.86414 -3.864139,3.86414 H 61.126637 c -2.140734,0 -3.86414,-1.723406 -3.86414,-3.86414 V 61.19019 c 0,-2.140734 1.723406,-3.86414 3.86414,-3.86414 z"
         id="path918" />
      <path
         id="path920"
         d="m 57.256126,57.32605 h 25.942782 c 2.140733,0 3.864139,1.723406 3.864139,3.86414 v 22.07227 c 0,2.140734 -1.723406,3.86414 -3.864139,3.86414 H 57.256126 Z"
         style="fill:#ae7640;fill-opacity:1;stroke:none;stroke-width:4.46000004;stroke-linecap:round;stroke-linejoin:round;stroke-miterlimit:4;stroke-dasharray:none;stroke-opacity:1"
         inkscape:connector-curvature="0"
         sodipodi:nodetypes="csssscc" />
      <rect
         style="fill:#a06d3d;fill-opacity:1;stroke:none;stroke-width:3.3599999;stroke-linecap:round;stroke-linejoin:round;stroke-miterlimit:4;stroke-dasharray:none;stroke-opacity:1"
         id="rect922"
         width="22.450638"
         height="22.450638"
         x="60.937454"
         y="61.001007"
         ry="2.9111009" />
    </g>
  </g>
</svg>
