<?xml version="1.0" encoding="UTF-8" standalone="no"?>
<!-- Created with Inkscape (http://www.inkscape.org/) -->

<svg
   xmlns:dc="http://purl.org/dc/elements/1.1/"
   xmlns:cc="http://creativecommons.org/ns#"
   xmlns:rdf="http://www.w3.org/1999/02/22-rdf-syntax-ns#"
   xmlns:svg="http://www.w3.org/2000/svg"
   xmlns="http://www.w3.org/2000/svg"
   xmlns:sodipodi="http://sodipodi.sourceforge.net/DTD/sodipodi-0.dtd"
   xmlns:inkscape="http://www.inkscape.org/namespaces/inkscape"
   id="svg8"
   version="1.1"
   viewBox="0 0 210 297"
   height="297mm"
   width="210mm"
   sodipodi:docname="UI.svg"
   inkscape:version="0.92.4 (5da689c313, 2019-01-14)">
  <defs
     id="defs2" />
  <sodipodi:namedview
     id="base"
     pagecolor="#ffffff"
     bordercolor="#666666"
     borderopacity="1.0"
     inkscape:pageopacity="0.0"
     inkscape:pageshadow="2"
     inkscape:zoom="1.979899"
     inkscape:cx="480.00341"
     inkscape:cy="424.75436"
     inkscape:document-units="mm"
     inkscape:current-layer="layer1"
     showgrid="false"
     inkscape:window-width="1920"
     inkscape:window-height="1027"
     inkscape:window-x="1272"
     inkscape:window-y="-8"
     inkscape:window-maximized="1"
     inkscape:snap-bbox="true"
     inkscape:snap-object-midpoints="true"
     inkscape:snap-global="false"
     showguides="true"
     inkscape:snap-smooth-nodes="true"
     inkscape:snap-midpoints="true" />
  <metadata
     id="metadata5">
    <rdf:RDF>
      <cc:Work
         rdf:about="">
        <dc:format>image/svg+xml</dc:format>
        <dc:type
           rdf:resource="http://purl.org/dc/dcmitype/StillImage" />
      </cc:Work>
    </rdf:RDF>
  </metadata>
  <g
     inkscape:label="Layer 1"
     inkscape:groupmode="layer"
     id="layer1">
    <path
       style="fill:#7d7461;fill-opacity:1;stroke:#8d826d;stroke-width:3.77952766;stroke-linecap:round;stroke-linejoin:round;stroke-miterlimit:4;stroke-dasharray:none;stroke-opacity:1"
       d="M 406.14453 520.59766 A 70.681675 70.681675 0 0 0 394.17969 523.85547 L 392.7832 542.5293 C 387.54648 545.34845 382.83441 549.00909 378.8125 553.32422 L 360.26562 550.01367 A 70.681675 70.681675 0 0 0 354.22461 560.74219 L 366.47266 574.9707 C 365.05743 579.80298 364.28513 584.90935 364.28516 590.19922 C 364.28518 590.95357 364.31122 591.70235 364.3418 592.44922 L 348.95703 603.17383 A 70.681675 70.681675 0 0 0 352.29883 615.1582 L 371.14844 616.56836 C 373.96175 621.5977 377.54882 626.13259 381.75781 630.00781 L 378.45508 648.51367 A 70.681675 70.681675 0 0 0 389.58203 654.67773 L 403.92188 642.33203 C 408.52973 643.60842 413.37835 644.30473 418.39258 644.30469 C 419.0258 644.30469 419.65328 644.27822 420.28125 644.25781 L 431.05078 659.70703 A 70.681675 70.681675 0 0 0 443.56055 656.22461 L 444.97461 637.32031 C 449.67215 634.66467 453.92907 631.32653 457.61914 627.44141 L 476.22852 630.76562 A 70.681675 70.681675 0 0 0 482.69727 619.37305 L 470.40625 605.0957 C 471.75993 600.36147 472.49985 595.36814 472.5 590.19922 C 472.5 589.84243 472.48022 589.49 472.47266 589.13477 L 488.05664 578.27344 A 70.681675 70.681675 0 0 0 484.66797 565.77734 L 465.95117 564.37891 C 463.28252 559.47376 459.86852 555.03824 455.875 551.19922 L 459.20508 532.54883 A 70.681675 70.681675 0 0 0 448.21289 526.20508 L 434.04688 538.40039 C 429.09014 536.9043 423.83725 536.0918 418.39258 536.0918 C 417.91519 536.0918 417.44316 536.11366 416.96875 536.125 L 406.14453 520.59766 z M 418.50586 545.28516 A 44.867344 44.867344 0 0 1 449.55859 557.7832 L 432.98633 575.05859 A 20.938774 20.938774 0 0 0 418.50586 569.21289 A 20.938774 20.938774 0 0 0 408.56445 571.74609 L 397.1875 550.68359 A 44.867344 44.867344 0 0 1 418.50586 545.28516 z M 385.88477 559.43359 L 403.46484 575.64258 A 20.938774 20.938774 0 0 0 397.90039 589.81836 A 20.938774 20.938774 0 0 0 400.59961 600.05273 L 379.73047 611.76367 A 44.867345 44.867345 0 0 1 373.97266 589.81836 A 44.867345 44.867345 0 0 1 385.88477 559.43359 z M 458.30859 568.5 A 44.867343 44.867343 0 0 1 463.70703 589.81836 A 44.867343 44.867343 0 0 1 451.20898 620.87109 L 433.93359 604.29883 A 20.938774 20.938774 0 0 0 439.7793 589.81836 A 20.938774 20.938774 0 0 0 437.24609 579.87695 L 458.30859 568.5 z M 418.39258 578.70312 C 424.74143 578.70335 429.88732 583.85033 429.88672 590.19922 C 429.88653 596.5475 424.74086 601.69313 418.39258 601.69336 C 412.04426 601.69313 406.89866 596.5475 406.89844 590.19922 C 406.89787 583.85033 412.04369 578.70335 418.39258 578.70312 z M 404.33008 605.52734 A 20.938774 20.938774 0 0 0 418.50586 611.0918 A 20.938774 20.938774 0 0 0 428.74023 608.39258 L 440.45117 629.26172 A 44.867346 44.867346 0 0 1 418.50586 635.01953 A 44.867346 44.867346 0 0 1 388.12109 623.10742 L 404.33008 605.52734 z "
       transform="scale(0.26458333)"
       id="path4546" />
    <path
       style="fill:#afd5aa;fill-opacity:1;stroke:#7d7461;stroke-width:3.77952766;stroke-linecap:round;stroke-linejoin:round;stroke-miterlimit:4;stroke-dasharray:none;stroke-opacity:1"
       d="M 255.57227 321.24805 C 251.38455 321.24805 248.01367 324.61892 248.01367 328.80664 L 248.01367 578.01758 C 248.01367 582.20529 251.38455 585.57617 255.57227 585.57617 L 342.73047 585.57617 A 75.893137 75.893137 0 0 1 418.39258 514.30469 A 75.893137 75.893137 0 0 1 494.12109 585.57617 L 581.21289 585.57617 C 585.40061 585.57617 588.77148 582.20529 588.77148 578.01758 L 588.77148 328.80664 C 588.77148 324.61892 585.40061 321.24805 581.21289 321.24805 L 255.57227 321.24805 z "
       transform="scale(0.26458333)"
       id="rect4664" />
    <path
       style="fill:#faebc1;fill-opacity:1;stroke:#9e8d73;stroke-width:3.77952766;stroke-linecap:round;stroke-linejoin:round;stroke-miterlimit:4;stroke-dasharray:none;stroke-opacity:1"
       d="M 255.30469 593.45312 C 251.11697 593.45313 247.74609 596.82596 247.74609 601.01367 L 247.74609 850.22266 C 247.74609 854.41037 251.11697 857.78125 255.30469 857.78125 L 580.94336 857.78125 C 585.13108 857.78125 588.50391 854.41037 588.50391 850.22266 L 588.50391 601.01367 C 588.50391 596.82596 585.13108 593.45312 580.94336 593.45312 L 494.12305 593.45312 A 75.893137 75.893137 0 0 1 418.39258 666.0918 A 75.893137 75.893137 0 0 1 342.61523 593.45312 L 255.30469 593.45312 z "
       transform="scale(0.26458333)"
       id="rect4666" />
    <path
       style="fill:#faebc1;fill-opacity:1;stroke:#9e8d73;stroke-width:1;stroke-linecap:round;stroke-linejoin:round;stroke-miterlimit:4;stroke-dasharray:none;stroke-opacity:1"
       d="m 67.469265,157.54955 c -1.785985,0.1349 -1.431973,2.38256 -1.390613,3.59875 0.04123,21.40878 -0.0823,42.83325 0.0615,64.23226 0.718201,1.83485 3.146777,0.76204 4.597652,1.04489 27.780125,-0.0314 55.570586,0.0628 83.344266,-0.047 1.89449,-0.65556 0.82215,-3.16557 1.09709,-4.61212 -0.0412,-21.056 0.0823,-42.1277 -0.0615,-63.17392 -0.71022,-1.83427 -3.154,-0.76377 -4.59817,-1.04542 -6.43337,0 -12.86674,0 -19.30011,0 -0.45858,9.3907 -8.1559,17.74343 -17.47616,18.97254 -9.50961,1.61983 -19.569813,-4.4928 -22.503098,-13.68495 -0.620527,-1.69845 -0.926028,-3.49204 -1.089551,-5.28759 -7.560421,0.002 -15.12094,-0.003 -22.681303,0.003 z"
       id="path4701"
       inkscape:connector-curvature="0" />
    <path
       sodipodi:type="inkscape:offset"
       inkscape:radius="0"
       inkscape:original="M 255.30469 593.45312 C 251.11697 593.45313 247.74609 596.82596 247.74609 601.01367 L 247.74609 850.22266 C 247.74609 854.41037 251.11697 857.78125 255.30469 857.78125 L 580.94336 857.78125 C 585.13108 857.78125 588.50391 854.41037 588.50391 850.22266 L 588.50391 601.01367 C 588.50391 596.82596 585.13108 593.45314 580.94336 593.45312 L 494.12305 593.45312 A 75.893137 75.893137 0 0 1 418.39258 666.0918 A 75.893137 75.893137 0 0 1 342.61523 593.45312 L 255.30469 593.45312 z "
       style="fill:#ffcc4d;fill-opacity:1;stroke:#7d7461;stroke-width:3.77952766;stroke-linecap:round;stroke-linejoin:round;stroke-miterlimit:4;stroke-dasharray:none;stroke-opacity:1"
       id="path4735"
       d="m 255.30469,593.45312 c -4.18772,10e-6 -7.5586,3.37284 -7.5586,7.56055 v 249.20899 c 0,4.18771 3.37088,7.55859 7.5586,7.55859 h 325.63867 c 4.18772,0 7.56055,-3.37088 7.56055,-7.55859 V 601.01367 c 0,-4.18771 -3.37283,-7.56053 -7.56055,-7.56055 h -86.82031 a 75.893137,75.893137 0 0 1 -75.73047,72.63868 75.893137,75.893137 0 0 1 -75.77735,-72.63868 z"
       transform="scale(0.26458333)" />
  </g>
</svg>
